<?xml version="1.0" encoding="utf-8"?>
<!-- Generator: Adobe Illustrator 23.1.0, SVG Export Plug-In . SVG Version: 6.00 Build 0)  -->
<svg version="1.1" id="Layer_1" focusable="false" xmlns="http://www.w3.org/2000/svg" xmlns:xlink="http://www.w3.org/1999/xlink"
	 x="0px" y="0px" viewBox="0 0 24 24" style="enable-background:new 0 0 24 24;" xml:space="preserve">
<style type="text/css">
	.st0{fill:#FFFFFF;}
</style>
<g id="Layer_2">
	<g id="Logo">
		<path class="st0" d="M10,6.8L10,6.8c-1-1-1-2.7,0-3.8c1-1,2.7-1,3.8,0c0.5,0.5,0.8,1.2,0.8,1.9c0,0.7-0.3,1.4-0.7,1.9c0,0,0,0,0,0
			c-0.4,0.4-0.9,0.7-1.5,0.7c-0.3,0-0.6,0-0.9,0C10.9,7.5,10.4,7.2,10,6.8 M11.1,5.7L11.1,5.7C11.3,5.9,11.5,6,11.7,6
			c0.1,0,0.2,0,0.4,0c0.2,0,0.4-0.1,0.6-0.3l0,0c0.4-0.4,0.4-1.1,0-1.5c-0.4-0.4-1.1-0.4-1.6,0C10.7,4.6,10.7,5.3,11.1,5.7"/>
		<path class="st0" d="M14.8,9.4l-1.1,1.1l-1.8-1.8l-1.8,1.8L9,9.4l1.8-1.8L10,6.8l0.6-0.6l0,0c0.3,0.3,0.7,0.5,1,0.5
			c0.2,0,0.4,0,0.6,0c0.4-0.1,0.7-0.2,1-0.5c0,0,0,0,0,0l0.6,0.6L13,7.6L14.8,9.4z"/>
		<path class="st0" d="M17.4,14.2c-0.4-0.4-0.7-0.9-0.7-1.5c0-0.3,0-0.6,0-0.9c0.1-0.6,0.3-1.1,0.7-1.5l0,0c1-1,2.7-1,3.8,0
			c1,1,1,2.7,0,3.8c-0.5,0.5-1.2,0.8-1.9,0.8C18.6,15,17.9,14.7,17.4,14.2C17.4,14.2,17.4,14.2,17.4,14.2 M18.5,11.5L18.5,11.5
			c-0.2,0.2-0.3,0.4-0.3,0.6c0,0.1,0,0.2,0,0.4c0,0.2,0.1,0.4,0.3,0.6l0,0c0.4,0.4,1.1,0.4,1.5,0c0.4-0.4,0.4-1.1,0-1.6
			C19.6,11.1,18.9,11.1,18.5,11.5"/>
		<path class="st0" d="M14.8,15.2l-1.1-1.1l1.8-1.8l-1.8-1.8l1.1-1.1l1.8,1.8l0.8-0.8l0.6,0.6l0,0c-0.3,0.3-0.5,0.7-0.5,1
			c0,0.2,0,0.4,0,0.6c0.1,0.4,0.2,0.7,0.5,1c0,0,0,0,0,0l-0.6,0.6l-0.8-0.8L14.8,15.2z"/>
		<path class="st0" d="M10,21.5c-0.5-0.5-0.8-1.2-0.8-1.9c0-0.7,0.3-1.4,0.7-1.9c0,0,0,0,0,0c0.4-0.4,0.9-0.7,1.5-0.7
			c0.3,0,0.6,0,0.9,0c0.6,0.1,1.1,0.3,1.5,0.7l0,0c1,1,1,2.7,0,3.8C12.8,22.5,11.1,22.5,10,21.5 M12.7,18.8
			c-0.2-0.2-0.4-0.3-0.6-0.3c-0.1,0-0.2,0-0.4,0c-0.2,0-0.4,0.1-0.6,0.3l0,0c-0.4,0.4-0.4,1.1,0,1.5c0.4,0.4,1.1,0.4,1.6,0
			C13.1,20,13.1,19.3,12.7,18.8L12.7,18.8z"/>
		<path class="st0" d="M9,15.2l1.1-1.1l1.8,1.8l1.8-1.8l1.1,1.1L13,16.9l0.8,0.8l-0.6,0.6l0,0c-0.3-0.3-0.7-0.5-1-0.5
			c-0.2,0-0.4,0-0.6,0c-0.4,0.1-0.7,0.2-1,0.5c0,0,0,0,0,0L10,17.7l0.8-0.8L9,15.2z"/>
		<path class="st0" d="M2.7,14.2c-1-1-1-2.7,0-3.8c0.5-0.5,1.2-0.8,1.9-0.8c0.7,0,1.4,0.3,1.9,0.7c0,0,0,0,0,0
			c0.4,0.4,0.7,0.9,0.7,1.5c0,0.3,0,0.6,0,0.9c-0.1,0.6-0.3,1.1-0.7,1.5l0,0C5.4,15.2,3.7,15.2,2.7,14.2 M5.4,11.5L5.4,11.5
			c-0.4-0.4-1.1-0.4-1.6,0c-0.4,0.4-0.4,1.1,0,1.6c0.4,0.4,1.1,0.4,1.6,0l0,0c0.2-0.2,0.3-0.4,0.3-0.6c0-0.1,0-0.2,0-0.4
			C5.6,11.9,5.5,11.7,5.4,11.5"/>
		<path class="st0" d="M9,9.4l1.1,1.1l-1.8,1.8l1.8,1.8L9,15.2l-1.8-1.8l-0.8,0.8l-0.6-0.6l0,0c0.3-0.3,0.5-0.7,0.5-1
			c0-0.2,0-0.4,0-0.6c-0.1-0.4-0.2-0.7-0.5-1c0,0,0,0,0,0l0.6-0.6l0.8,0.8L9,9.4z"/>
	</g>
</g>
</svg>
